<svg width="110" height="136" viewBox="0 0 110 136" fill="none" xmlns="http://www.w3.org/2000/svg">
<path d="M109 79.63C109 107.244 84.8234 129.63 55 129.63C25.1766 129.63 1 107.244 1 79.63C1 52.0158 28.7431 29.63 55 29.63C81.2569 29.63 109 52.0158 109 79.63Z" fill="#F0F0F0"/>
<path d="M55 17.63C24.6243 17.63 0 41.6965 0 71.3841V93.6704C0 99.7232 5.02049 104.63 11.2136 104.63C17.4067 104.63 22.4272 99.7232 22.4272 93.6704V84.6122L22.4272 94.1923C22.4272 99.9569 27.2086 104.63 33.1068 104.63C39.005 104.63 43.7864 99.9569 43.7864 94.1923L43.7864 84.6122V93.6704C43.7864 99.7232 48.8069 104.63 55 104.63C61.1832 104.63 66.1976 99.7389 66.2136 93.6995V94.1923C66.2136 99.9569 70.995 104.63 76.8932 104.63C82.7914 104.63 87.5728 99.9569 87.5728 94.1923L87.5728 93.6704C87.5728 99.7232 92.5933 104.63 98.7864 104.63C104.98 104.63 110 99.7232 110 93.6704V75.773C110 75.7687 110 75.7643 110 75.76V71.3841C110 41.6965 85.3757 17.63 55 17.63Z" fill="#FCFCFC"/>
<circle cx="21" cy="65.5162" r="8" fill="#FFCEB9"/>
<circle cx="89" cy="65.5162" r="8" fill="#FFCEB9"/>
<circle cx="30.5" cy="56.13" r="7.5" fill="#525151"/>
<circle cx="2.34375" cy="2.34375" r="2.34375" transform="matrix(-1 0 0 1 36.125 50.4008)" fill="white"/>
<circle cx="1.40625" cy="1.40625" r="1.40625" transform="matrix(-1 0 0 1 31.4375 55.0883)" fill="white"/>
<circle cx="80.5" cy="56.13" r="7.5" fill="#525151"/>
<circle cx="2.34375" cy="2.34375" r="2.34375" transform="matrix(-1 0 0 1 86.125 50.4008)" fill="white"/>
<circle cx="1.40625" cy="1.40625" r="1.40625" transform="matrix(-1 0 0 1 81.4375 55.0883)" fill="white"/>
<path fill-rule="evenodd" clip-rule="evenodd" d="M55.746 78.1794C54.0991 81.6654 51.1096 83.9315 48.3138 83.5178C44.874 83.0088 43.03 78.6362 44.195 73.7512C45.36 68.8663 49.0929 65.3189 52.5327 65.8279C53.8954 66.0295 55.0076 66.8376 55.7816 68.0436C56.5536 66.8728 57.6506 66.0896 58.9892 65.8915C62.4289 65.3825 66.1618 68.9299 67.3269 73.8148C68.4919 78.6998 66.6478 83.0724 63.208 83.5814C60.3952 83.9976 57.3864 81.7014 55.746 78.1794Z" fill="#ED653B"/>
<path d="M44.7559 66.0799C42.8082 64.4904 42.7922 61.5197 44.7225 59.9093L53.2965 52.7566C54.7746 51.5235 56.9213 51.5181 58.4056 52.7436L67.0685 59.8962C69.0198 61.5072 69.0037 64.5025 67.0352 66.0925L58.372 73.0895C56.8999 74.2786 54.7958 74.2732 53.3297 73.0767L44.7559 66.0799Z" fill="#FFD500"/>
<g style="mix-blend-mode:multiply">
<path fill-rule="evenodd" clip-rule="evenodd" d="M68.4553 63.7102C65.3116 65.5187 61.0449 66.63 56.3457 66.63C51.155 66.63 46.4921 65.2741 43.2873 63.1204C43.3255 64.2231 43.8156 65.3125 44.7559 66.0798L53.3297 73.0767C54.7958 74.2732 56.8998 74.2786 58.372 73.0895L67.0352 66.0925C67.8163 65.4616 68.29 64.6094 68.4553 63.7102Z" fill="#FFD500" fill-opacity="0.5"/>
</g>
<path d="M58.0823 119.705C57.5369 119.937 56.9182 120.059 56.2884 120.059H54.6532C54.0234 120.059 53.4047 119.937 52.8593 119.705L39.4542 114.011C36.9422 112.944 33.8326 114.4 34.016 116.529C34.5164 122.339 34.5064 126.92 34.0077 132.73C33.8251 134.857 36.9313 136.309 39.4406 135.243L53.3831 129.321C53.9285 129.089 54.5472 128.967 55.177 128.967H55.7646C56.3944 128.967 57.0131 129.089 57.5585 129.321L71.5691 135.272C74.065 136.332 77.1576 134.901 76.9938 132.784C76.5409 126.933 76.5199 122.335 76.9765 116.487C77.1422 114.365 74.0425 112.926 71.5411 113.988L58.0823 119.705Z" fill="#ED653B"/>
<g style="mix-blend-mode:multiply">
<path fill-rule="evenodd" clip-rule="evenodd" d="M34.3865 124.63C34.3842 127.227 34.257 129.825 34.0077 132.73C33.8251 134.857 36.9313 136.309 39.4406 135.243L53.3831 129.321C53.9285 129.089 54.5472 128.967 55.177 128.967H55.7646C56.3944 128.967 57.0131 129.089 57.5585 129.321L71.5691 135.272C74.065 136.332 77.1576 134.901 76.9938 132.784C76.7672 129.857 76.6487 127.244 76.6441 124.63H34.3865Z" fill="#ED653B" fill-opacity="0.45"/>
</g>
<path fill-rule="evenodd" clip-rule="evenodd" d="M55.3033 33.1153C51.5776 35.5028 46.5666 35.0678 43.3093 31.8105L34.4307 22.9319C30.6714 19.1726 30.6714 13.0775 34.4307 9.31811C37.6227 6.12613 42.4986 5.64439 46.1989 7.87291C47.0232 3.39365 50.9483 0 55.666 0C60.2568 0 64.097 3.21361 65.0599 7.514C68.6654 5.70906 73.1682 6.31043 76.1759 9.31811C79.9352 13.0775 79.9352 19.1726 76.1759 22.9319L67.2973 31.8105C64.04 35.0678 59.029 35.5028 55.3033 33.1153Z" fill="#ED653B"/>
<g style="mix-blend-mode:multiply">
<path fill-rule="evenodd" clip-rule="evenodd" d="M78.5408 19.0548C78.0891 17.6367 77.3008 16.3026 76.1759 15.1777C73.1682 12.17 68.6654 11.5686 65.0599 13.3736C64.097 9.0732 60.2568 5.85958 55.666 5.85958C50.9483 5.85958 47.0232 9.25323 46.1989 13.7325C42.4986 11.504 37.6227 11.9857 34.4307 15.1777C33.3058 16.3026 32.5175 17.6367 32.0658 19.0548C31.008 15.7339 31.7963 11.9525 34.4307 9.31811C37.6227 6.12613 42.4986 5.64439 46.1989 7.87291C47.0232 3.39365 50.9483 0 55.666 0C60.2568 0 64.097 3.21361 65.0599 7.514C68.6654 5.70906 73.1682 6.31043 76.1759 9.31811C78.8103 11.9525 79.5986 15.7339 78.5408 19.0548Z" fill="#ED653B" fill-opacity="0.5"/>
</g>
</svg>
