<svg width="86" height="100" viewBox="0 0 86 100" fill="none" xmlns="http://www.w3.org/2000/svg">
<path fill-rule="evenodd" clip-rule="evenodd" d="M62.0528 9.74766C67.8608 3.65344 74.9297 -1.72293 80.3897 0.519581C89.5578 4.28505 84.8761 28.5642 82.8847 37.2161C83.6049 40.0617 83.986 42.9347 83.986 45.7634C83.986 65.3658 65.6814 83.7754 43.1014 83.7754C20.5214 83.7754 2.21675 65.3658 2.21675 45.7634C2.21675 43.1729 2.53643 40.5452 3.1434 37.9354C1.27053 30.0045 -3.96597 4.39537 5.47071 0.519581C10.9694 -1.7388 18.0998 3.72995 23.9308 9.8772C29.6484 6.47508 36.1737 4.42947 43.1014 4.42947C49.9407 4.42947 56.3878 6.42322 62.0528 9.74766Z" fill="#807D8A"/>
<path fill-rule="evenodd" clip-rule="evenodd" d="M62.0528 9.74766C67.8608 3.65344 74.9297 -1.72293 80.3897 0.519581C89.5578 4.28505 84.8761 28.5642 82.8847 37.2161C83.6049 40.0617 83.986 42.9347 83.986 45.7634C83.986 65.3658 65.6814 83.7754 43.1014 83.7754C20.5214 83.7754 2.21675 65.3658 2.21675 45.7634C2.21675 43.1729 2.53643 40.5452 3.1434 37.9354C1.27053 30.0045 -3.96597 4.39537 5.47071 0.519581C10.9694 -1.7388 18.0998 3.72995 23.9308 9.8772C29.6484 6.47508 36.1737 4.42947 43.1014 4.42947C49.9407 4.42947 56.3878 6.42322 62.0528 9.74766Z" fill="#807D8A"/>
<path fill-rule="evenodd" clip-rule="evenodd" d="M3.83665 55.4123C3.81525 55.6667 3.84525 55.9241 3.92542 56.1665C8.61449 70.3455 22.4585 82.0271 39.2525 83.5963C39.7497 83.6427 40.2476 83.493 40.63 83.1718C41.0228 82.842 41.4073 82.4978 41.7829 82.1399C42.6548 81.3093 44.0549 81.3093 44.9269 82.1399C45.2841 82.4803 45.6494 82.8083 46.0222 83.1233C46.4108 83.4518 46.9194 83.6024 47.4255 83.5492C64.5153 81.7525 78.4687 69.4886 82.6806 54.8631C82.7506 54.62 82.7708 54.3642 82.7406 54.113C81.0284 39.8445 71.1807 28.9033 59.2887 28.9033C53.8902 28.9033 48.9131 31.1581 44.927 34.9552C44.0551 35.7859 42.6547 35.7859 41.7828 34.9553C37.7967 31.1581 32.8195 28.9033 27.4211 28.9033C15.1706 28.9033 5.08957 40.5141 3.83665 55.4123Z" fill="#FAFAFA"/>
<path fill-rule="evenodd" clip-rule="evenodd" d="M23.2413 78.7078C13.5362 73.4399 6.26082 64.5876 3.46686 54.6685C6.15323 52.4614 9.59186 51.1365 13.3399 51.1365C21.9353 51.1365 28.9032 58.1044 28.9032 66.6998C28.9032 71.5339 26.6992 75.8533 23.2413 78.7078Z" fill="#FFD9D9"/>
<path fill-rule="evenodd" clip-rule="evenodd" d="M82.8271 54.3385C80.1313 64.286 72.9267 73.1936 63.2682 78.5397C59.9256 75.6852 57.8065 71.4399 57.8065 66.6998C57.8065 58.1044 64.7744 51.1365 73.3698 51.1365C76.9272 51.1365 80.2058 52.33 82.8271 54.3385Z" fill="#FFD9D9"/>
<path d="M5.66159 26.7129C4.5897 21.2148 2.66731 8.56557 7.04055 5.92894C11.594 3.18369 19.6415 10.4687 22.5417 13.3433C23.1013 13.8979 22.9525 14.817 22.2695 15.2097C16.4102 18.5792 11.7164 22.4151 7.80803 27.199C7.15415 27.9994 5.85936 27.7273 5.66159 26.7129Z" fill="#DCDDDD"/>
<path d="M80.4368 26.6104C81.3621 21.0592 82.9039 8.54931 78.5576 5.92893C74.0026 3.18276 66.3139 10.4736 63.5541 13.3461C63.0172 13.9051 63.1747 14.8037 63.8468 15.1897C69.6928 18.547 74.3797 22.3669 78.284 27.1268C78.949 27.9375 80.2644 27.6447 80.4368 26.6104Z" fill="#DCDDDD"/>
<circle cx="27.5257" cy="45.3465" r="5.18776" fill="#323232"/>
<circle cx="29.4712" cy="44.0495" r="1.29694" fill="white"/>
<circle cx="5.18776" cy="5.18776" r="5.18776" transform="matrix(-1 0 0 1 63.8401 40.1587)" fill="#323232"/>
<circle cx="1.29694" cy="1.29694" r="1.29694" transform="matrix(-1 0 0 1 58.0038 42.7526)" fill="white"/>
<path d="M48.1133 54.2465C48.1133 55.5824 45.9915 56.6654 43.3742 56.6654C40.7569 56.6654 38.6351 55.5824 38.6351 54.2465C38.6351 52.9106 40.7569 51.1365 43.3742 51.1365C45.9915 51.1365 48.1133 52.9106 48.1133 54.2465Z" fill="#323232"/>
<circle cx="41.0047" cy="53.5062" r="0.789847" fill="white"/>
<path d="M43.3742 53.3677V58.1068C43.3742 59.8516 41.9597 61.2661 40.2148 61.2661H39.0301C37.9395 61.2661 37.0555 60.3821 37.0555 59.2915V59.2915" stroke="#323232" stroke-width="1.91837" stroke-linecap="round" stroke-linejoin="round"/>
<path d="M43.3742 53.3677V58.1068C43.3742 59.8516 44.7887 61.2661 46.5336 61.2661H47.7184C48.8089 61.2661 49.693 60.3821 49.693 59.2915V59.2915" stroke="#323232" stroke-width="1.91837" stroke-linecap="round" stroke-linejoin="round"/>
<rect x="20.1147" y="78.2172" width="46.6899" height="5.92887" rx="2.96444" fill="#ED653B"/>
<circle cx="43.089" cy="84.146" r="5.92887" fill="#FFCE05"/>
<path d="M42.3646 88.4704C41.8886 88.4704 41.4746 88.3844 41.1226 88.2124C40.7706 88.0364 40.5006 87.7884 40.3126 87.4684C40.1246 87.1484 40.0306 86.7764 40.0306 86.3524C40.0306 85.7644 40.1406 85.2424 40.3606 84.7864C40.5846 84.3304 40.8866 83.9784 41.2666 83.7304C41.6466 83.4784 42.0686 83.3524 42.5326 83.3524C42.9646 83.3524 43.2926 83.4644 43.5166 83.6884C43.7406 83.9084 43.8526 84.2004 43.8526 84.5644C43.8526 84.8084 43.8086 85.0044 43.7206 85.1524C43.6366 85.3004 43.5146 85.3744 43.3546 85.3744C43.2426 85.3744 43.1546 85.3484 43.0906 85.2964C43.0266 85.2444 42.9946 85.1684 42.9946 85.0684C42.9946 85.0324 43.0026 84.9664 43.0186 84.8704C43.0426 84.7504 43.0546 84.6544 43.0546 84.5824C43.0546 84.2184 42.8606 84.0364 42.4726 84.0364C42.2086 84.0364 41.9566 84.1224 41.7166 84.2944C41.4766 84.4664 41.2826 84.7204 41.1346 85.0564C40.9866 85.3884 40.9126 85.7844 40.9126 86.2444C40.9126 86.7244 41.0466 87.0964 41.3146 87.3604C41.5826 87.6204 41.9786 87.7504 42.5026 87.7504C42.7626 87.7504 43.0246 87.7184 43.2886 87.6544C43.5566 87.5864 43.8526 87.4844 44.1766 87.3484C44.2366 87.3244 44.2866 87.3124 44.3266 87.3124C44.3906 87.3124 44.4386 87.3364 44.4706 87.3844C44.5026 87.4324 44.5186 87.4944 44.5186 87.5704C44.5186 87.8144 44.3866 87.9944 44.1226 88.1104C43.8386 88.2344 43.5426 88.3264 43.2346 88.3864C42.9306 88.4424 42.6406 88.4704 42.3646 88.4704ZM44.6599 88.4704C44.4799 88.4704 44.3319 88.3884 44.2159 88.2244C44.1039 88.0564 44.0479 87.8484 44.0479 87.6004C44.0479 87.3004 44.0679 87.0264 44.1079 86.7784C44.1479 86.5264 44.2139 86.2604 44.3059 85.9804C44.3459 85.8604 44.4019 85.7744 44.4739 85.7224C44.5459 85.6704 44.6599 85.6444 44.8159 85.6444C44.9039 85.6444 44.9639 85.6584 44.9959 85.6864C45.0319 85.7144 45.0499 85.7564 45.0499 85.8124C45.0499 85.8444 45.0279 85.9524 44.9839 86.1364C44.9439 86.2844 44.9119 86.4184 44.8879 86.5384C44.8079 86.9584 44.7679 87.2384 44.7679 87.3784C44.7679 87.4624 44.7779 87.5224 44.7979 87.5584C44.8179 87.5904 44.8499 87.6064 44.8939 87.6064C44.9539 87.6064 45.0279 87.5464 45.1159 87.4264C45.2079 87.3064 45.3039 87.1244 45.4039 86.8804C45.5079 86.6364 45.6079 86.3364 45.7039 85.9804C45.7359 85.8604 45.7839 85.7744 45.8479 85.7224C45.9159 85.6704 46.0159 85.6444 46.1479 85.6444C46.2399 85.6444 46.3039 85.6564 46.3399 85.6804C46.3759 85.7004 46.3939 85.7404 46.3939 85.8004C46.3939 85.9004 46.3439 86.1744 46.2439 86.6224C46.1319 87.1344 46.0759 87.4504 46.0759 87.5704C46.0759 87.6464 46.0919 87.7064 46.1239 87.7504C46.1559 87.7904 46.1979 87.8104 46.2499 87.8104C46.3299 87.8104 46.4239 87.7624 46.5319 87.6664C46.6439 87.5664 46.7919 87.4064 46.9759 87.1864C47.0239 87.1304 47.0779 87.1024 47.1379 87.1024C47.1899 87.1024 47.2299 87.1264 47.2579 87.1744C47.2899 87.2224 47.3059 87.2884 47.3059 87.3724C47.3059 87.5324 47.2679 87.6564 47.1919 87.7444C47.0199 87.9564 46.8339 88.1304 46.6339 88.2664C46.4379 88.4024 46.2139 88.4704 45.9619 88.4704C45.7699 88.4704 45.6279 88.3964 45.5359 88.2484C45.4479 88.1004 45.4039 87.8924 45.4039 87.6244C45.3359 87.8964 45.2339 88.1064 45.0979 88.2544C44.9619 88.3984 44.8159 88.4704 44.6599 88.4704ZM43.6419 98.1024C43.6939 98.1024 43.7339 98.1264 43.7619 98.1744C43.7939 98.2224 43.8099 98.2884 43.8099 98.3724C43.8099 98.5324 43.7719 98.6564 43.6959 98.7444C43.5239 98.9564 43.3359 99.1304 43.1319 99.2664C42.9279 99.4024 42.6939 99.4704 42.4299 99.4704C41.6139 99.4704 41.2059 98.8964 41.2059 97.7484C41.2059 97.5724 41.2119 97.3944 41.2239 97.2144H40.9899C40.8699 97.2144 40.7879 97.1924 40.7439 97.1484C40.7039 97.1044 40.6839 97.0344 40.6839 96.9384C40.6839 96.7144 40.7739 96.6024 40.9539 96.6024H41.2959C41.3639 96.1624 41.4679 95.7604 41.6079 95.3964C41.7479 95.0324 41.9159 94.7424 42.1119 94.5264C42.3119 94.3104 42.5259 94.2024 42.7539 94.2024C42.9219 94.2024 43.0539 94.2764 43.1499 94.4244C43.2459 94.5724 43.2939 94.7584 43.2939 94.9824C43.2939 95.6024 43.0339 96.1424 42.5139 96.6024H43.1859C43.2499 96.6024 43.2959 96.6164 43.3239 96.6444C43.3519 96.6724 43.3659 96.7244 43.3659 96.8004C43.3659 97.0764 43.1399 97.2144 42.6879 97.2144H41.9559C41.9479 97.4144 41.9439 97.5704 41.9439 97.6824C41.9439 98.0984 41.9919 98.3904 42.0879 98.5584C42.1879 98.7264 42.3439 98.8104 42.5559 98.8104C42.7279 98.8104 42.8799 98.7584 43.0119 98.6544C43.1439 98.5504 43.2999 98.3944 43.4799 98.1864C43.5279 98.1304 43.5819 98.1024 43.6419 98.1024ZM42.5919 94.7784C42.5319 94.7784 42.4639 94.8544 42.3879 95.0064C42.3159 95.1544 42.2459 95.3624 42.1779 95.6304C42.1139 95.8944 42.0599 96.1884 42.0159 96.5124C42.2519 96.3084 42.4279 96.0804 42.5439 95.8284C42.6639 95.5724 42.7239 95.3404 42.7239 95.1324C42.7239 94.8964 42.6799 94.7784 42.5919 94.7784ZM45.4694 98.2824C45.5214 98.2824 45.5614 98.3064 45.5894 98.3544C45.6214 98.4024 45.6374 98.4684 45.6374 98.5524C45.6374 98.6964 45.6034 98.8204 45.5354 98.9244C45.4234 99.0964 45.2754 99.2304 45.0914 99.3264C44.9114 99.4224 44.6954 99.4704 44.4434 99.4704C44.0594 99.4704 43.7614 99.3564 43.5494 99.1284C43.3374 98.8964 43.2314 98.5844 43.2314 98.1924C43.2314 97.9164 43.2894 97.6604 43.4054 97.4244C43.5214 97.1844 43.6814 96.9944 43.8854 96.8544C44.0934 96.7144 44.3274 96.6444 44.5874 96.6444C44.8194 96.6444 45.0054 96.7144 45.1454 96.8544C45.2854 96.9904 45.3554 97.1764 45.3554 97.4124C45.3554 97.6884 45.2554 97.9264 45.0554 98.1264C44.8594 98.3224 44.5234 98.4784 44.0474 98.5944C44.1434 98.7784 44.3054 98.8704 44.5334 98.8704C44.6974 98.8704 44.8314 98.8324 44.9354 98.7564C45.0434 98.6804 45.1674 98.5524 45.3074 98.3724C45.3554 98.3124 45.4094 98.2824 45.4694 98.2824ZM44.4854 97.2324C44.3374 97.2324 44.2114 97.3184 44.1074 97.4904C44.0074 97.6624 43.9574 97.8704 43.9574 98.1144V98.1264C44.1934 98.0704 44.3794 97.9864 44.5154 97.8744C44.6514 97.7624 44.7194 97.6324 44.7194 97.4844C44.7194 97.4084 44.6974 97.3484 44.6534 97.3044C44.6134 97.2564 44.5574 97.2324 44.4854 97.2324Z" fill="#AC8F17" fill-opacity="0.8"/>
<path d="M35.5937 43.5666C35.5937 52.5605 27.9581 59.9445 18.4218 59.9445C8.88562 59.9445 1.25 52.5605 1.25 43.5666C1.25 34.5728 8.88562 27.1888 18.4218 27.1888C27.9581 27.1888 35.5937 34.5728 35.5937 43.5666Z" stroke="#323232" stroke-width="2.5"/>
<path d="M84.7186 43.5666C84.7186 52.5605 77.083 59.9445 67.5468 59.9445C58.0106 59.9445 50.3749 52.5605 50.3749 43.5666C50.3749 34.5728 58.0106 27.1888 67.5468 27.1888C77.083 27.1888 84.7186 34.5728 84.7186 43.5666Z" stroke="#323232" stroke-width="2.5"/>
<path d="M36.025 42.2715C41.2675 41.3787 44.3441 41.3948 49.9437 42.2715V45.5252C44.5965 44.7115 41.5475 44.7 36.025 45.5252V42.2715Z" fill="#242424"/>
</svg>
