<svg width="109" height="134" viewBox="0 0 109 134" fill="none" xmlns="http://www.w3.org/2000/svg">
<path fill-rule="evenodd" clip-rule="evenodd" d="M61.7634 0.302898C64.3582 1.24736 65.6962 4.11657 64.7517 6.71146L60.9895 17.0481C60.1803 19.2712 57.9584 20.5718 55.7065 20.3048C55.3371 20.5734 54.9243 20.7955 54.4737 20.9595C51.8788 21.904 49.0096 20.5661 48.0651 17.9712L44.3029 7.63456C43.3584 5.03967 44.6964 2.17046 47.2913 1.22599C49.8861 0.281531 52.7554 1.61947 53.6998 4.21436L54.3593 6.0263L55.3548 3.29126C56.2993 0.696371 59.1685 -0.641565 61.7634 0.302898Z" fill="#282828"/>
<ellipse cx="54" cy="58.5" rx="49" ry="50.5" fill="#282828"/>
<path fill-rule="evenodd" clip-rule="evenodd" d="M10.5311 81.83C10.528 81.8074 10.525 81.7847 10.522 81.7621C7.56443 59.6321 17.4747 40.0473 32.6572 38.0182C40.4102 36.9821 48.0387 40.7242 54.042 47.5816C60.0453 40.7242 67.6739 36.9821 75.4268 38.0182C90.5729 40.0424 100.472 59.5383 97.5831 81.6031C89.4466 97.8736 72.984 109 54 109C35.1043 109 18.7068 97.9769 10.5311 81.83Z" fill="white"/>
<circle cx="24.5" cy="78.5" r="7.5" fill="#FFC6AD"/>
<circle cx="83.5" cy="78.5" r="7.5" fill="#FFC6AD"/>
<g filter="url(#filter0_f_14_1610)">
<path d="M5.29216 71.7108C5.41296 70.9505 6.31362 70.6043 6.9248 71.0724C33.4566 91.3936 75.9741 90.4918 100.625 71.0478C101.217 70.5807 102.103 70.8895 102.259 71.6272L106.725 92.7055C107.477 96.2542 105.755 99.8905 102.443 101.371C70.6782 115.567 35.7394 115.543 6.02598 101.298C2.97387 99.8346 1.35476 96.4919 1.88589 93.1491L5.29216 71.7108Z" fill="#8ED2C9"/>
</g>
<path d="M5.29216 71.7108C5.41296 70.9505 6.31362 70.6043 6.9248 71.0724C33.4566 91.3936 75.9741 90.4918 100.625 71.0478C101.217 70.5807 102.103 70.8895 102.259 71.6272L106.725 92.7055C107.477 96.2542 105.755 99.8905 102.443 101.371C70.6782 115.567 35.7394 115.543 6.02598 101.298C2.97387 99.8346 1.35476 96.4919 1.88589 93.1491L5.29216 71.7108Z" fill="#8ED2C9"/>
<g filter="url(#filter1_f_14_1610)">
<path d="M69.9926 98C68.8241 98 67.9035 99.0014 68.0081 100.165C69.097 112.28 70.7591 119.195 77.0865 127.995C77.5315 128.614 78.2981 128.911 79.0474 128.772L79.1403 128.754C79.6759 130.311 80.5568 131.558 81.5879 132.678C81.9621 133.084 82.5948 133.11 83.0009 132.735C83.4071 132.361 83.4331 131.729 83.0589 131.322C82.2246 130.417 81.5621 129.484 81.1338 128.383L83.5366 127.935C84.0577 129.642 84.9872 130.983 86.0879 132.178C86.4621 132.584 87.0948 132.61 87.5009 132.235C87.9071 131.861 87.9331 131.229 87.5589 130.822C86.6456 129.831 85.9381 128.807 85.5184 127.565L87.6133 127.175C88.146 128.769 89.0393 130.039 90.0879 131.178C90.4621 131.584 91.0948 131.61 91.5009 131.235C91.9071 130.861 91.9331 130.229 91.5589 129.822C90.7047 128.895 90.0306 127.939 89.6035 126.804L91.6966 126.413C92.2365 127.897 93.0921 129.097 94.0879 130.178C94.4621 130.584 95.0948 130.61 95.5009 130.235C95.9071 129.861 95.9331 129.229 95.5589 128.822C94.7647 127.96 94.1262 127.073 93.6972 126.04L95.7866 125.651C96.3291 127.026 97.1458 128.155 98.0879 129.178C98.4621 129.584 99.0948 129.61 99.5009 129.235C99.9071 128.861 99.9331 128.229 99.5589 127.822C98.8256 127.027 98.2251 126.209 97.7996 125.276L99.8835 124.887C100.424 126.156 101.2 127.214 102.088 128.178C102.462 128.584 103.095 128.61 103.501 128.235C103.907 127.861 103.933 127.229 103.559 126.822C102.887 126.094 102.327 125.347 101.911 124.509L103.987 124.122C104.521 125.288 105.256 126.274 106.088 127.178C106.462 127.584 107.095 127.61 107.501 127.235C107.907 126.861 107.933 126.229 107.559 125.822C106.818 125.018 106.212 124.192 105.786 123.246C106.239 122.636 106.341 121.78 105.93 121.042C101.581 113.238 99.4584 107.953 97.658 99.6044C97.4573 98.6738 96.6388 98 95.6868 98H69.9926Z" fill="#8ED2C9"/>
</g>
<path fill-rule="evenodd" clip-rule="evenodd" d="M69.9926 98C68.8241 98 67.9035 99.0014 68.0081 100.165C69.097 112.28 70.7591 119.195 77.0864 127.995C77.5314 128.614 78.2981 128.911 79.0474 128.772L79.1403 128.754C79.6759 130.311 80.5568 131.558 81.5879 132.678C81.9621 133.084 82.5947 133.11 83.0009 132.735C83.4071 132.361 83.433 131.729 83.0588 131.322C82.2246 130.417 81.5621 129.484 81.1338 128.383L83.5366 127.935C84.0576 129.642 84.9872 130.983 86.0879 132.178C86.4621 132.584 87.0947 132.61 87.5009 132.235C87.9071 131.861 87.933 131.229 87.5588 130.822C86.6456 129.831 85.9381 128.807 85.5184 127.565L87.6132 127.175C88.146 128.769 89.0392 130.039 90.0879 131.178C90.4621 131.584 91.0947 131.61 91.5009 131.235C91.9071 130.861 91.933 130.229 91.5588 129.822C90.7047 128.895 90.0305 127.939 89.6035 126.804L91.6966 126.413C92.2365 127.897 93.0921 129.097 94.0879 130.178C94.4621 130.584 95.0947 130.61 95.5009 130.235C95.9071 129.861 95.933 129.229 95.5588 128.822C94.7647 127.96 94.1262 127.073 93.6972 126.04L95.7866 125.651C96.3291 127.026 97.1458 128.155 98.0879 129.178C98.4621 129.584 99.0947 129.61 99.5009 129.235C99.9071 128.861 99.933 128.229 99.5588 127.822C98.8256 127.027 98.225 126.209 97.7995 125.276L99.8835 124.887C100.424 126.156 101.2 127.214 102.088 128.178C102.462 128.584 103.095 128.61 103.501 128.235C103.907 127.861 103.933 127.229 103.559 126.822C102.887 126.094 102.327 125.347 101.911 124.509L103.987 124.122C104.521 125.288 105.256 126.274 106.088 127.178C106.462 127.584 107.095 127.61 107.501 127.235C107.907 126.861 107.933 126.229 107.559 125.822C106.818 125.018 106.212 124.192 105.786 123.246C106.239 122.636 106.341 121.78 105.93 121.042C101.581 113.238 99.4584 107.953 97.658 99.6044C97.4573 98.6738 96.6388 98 95.6868 98H69.9926Z" fill="#8ED2C9"/>
<path d="M82.1139 105.588C82.1817 105.549 82.2484 105.507 82.3136 105.461C83.4285 104.672 83.6969 103.134 82.9133 102.027C82.1296 100.92 80.5906 100.662 79.4758 101.451C79.3675 101.527 79.2673 101.611 79.1752 101.701C79.1066 100.747 78.5021 99.8766 77.5657 99.5329C76.2991 99.0679 74.9049 99.742 74.4518 101.038C74.2102 101.729 74.2849 102.458 74.5992 103.058C74.4987 103.046 74.3964 103.039 74.2927 103.039C72.9194 103.035 71.8201 104.126 71.8373 105.475C71.8545 106.824 72.9818 107.921 74.3551 107.925C74.4292 107.925 74.5025 107.922 74.5749 107.916C74.5451 107.982 74.5179 108.05 74.4935 108.12C74.0404 109.417 74.6999 110.844 75.9665 111.309C77.2331 111.774 78.6273 111.1 79.0804 109.804C79.1206 109.689 79.1521 109.573 79.1752 109.456C79.6238 109.861 80.2205 110.109 80.8727 110.111C82.246 110.115 83.3453 109.024 83.328 107.675C83.3168 106.794 82.8317 106.02 82.1139 105.588Z" fill="white"/>
<g style="mix-blend-mode:multiply">
<circle cx="78.0972" cy="105.605" r="1.85293" transform="rotate(79.3678 78.0972 105.605)" fill="#FED402"/>
</g>
<path d="M96.9303 115.003C97.0252 114.949 97.1184 114.889 97.2096 114.825C98.7676 113.722 99.1428 111.574 98.0476 110.026C96.9524 108.478 94.8014 108.118 93.2433 109.22C93.0921 109.327 92.952 109.444 92.8233 109.569C92.7274 108.236 91.8825 107.02 90.5739 106.54C88.8036 105.89 86.8552 106.832 86.2219 108.644C85.8843 109.61 85.9886 110.628 86.4278 111.467C86.2873 111.449 86.1444 111.44 85.9995 111.44C84.0801 111.434 82.5437 112.959 82.5678 114.844C82.5919 116.73 84.1674 118.263 86.0867 118.268C86.1903 118.269 86.2927 118.264 86.3939 118.256C86.3523 118.349 86.3143 118.444 86.2801 118.542C85.6468 120.353 86.5685 122.349 88.3388 122.999C90.109 123.649 92.0575 122.707 92.6908 120.895C92.747 120.734 92.791 120.572 92.8232 120.409C93.4503 120.975 94.2842 121.322 95.1956 121.324C97.115 121.33 98.6514 119.805 98.6273 117.92C98.6115 116.688 97.9337 115.606 96.9303 115.003Z" fill="white"/>
<g style="mix-blend-mode:multiply">
<circle cx="91.3167" cy="115.027" r="2.58966" transform="rotate(79.3678 91.3167 115.027)" fill="#FED402"/>
</g>
<circle cx="6.5" cy="6.5" r="6.5" transform="matrix(-1 0 0 1 38 59)" fill="#282828"/>
<circle cx="1.5" cy="1.5" r="1.5" transform="matrix(-1 0 0 1 36 62)" fill="white"/>
<circle cx="6.5" cy="6.5" r="6.5" transform="matrix(-1 0 0 1 83 59)" fill="#282828"/>
<circle cx="1.5" cy="1.5" r="1.5" transform="matrix(-1 0 0 1 81 62)" fill="white"/>
<path d="M63 67.5C63 65.0147 58.9706 63 54 63C49.0294 63 45 65.0147 45 67.5C45 69.9853 49.0294 75 54 75C58.9706 75 63 69.9853 63 67.5Z" fill="#FED402"/>
<defs>
<filter id="filter0_f_14_1610" x="0.786102" y="69.8264" width="107.113" height="43.1736" filterUnits="userSpaceOnUse" color-interpolation-filters="sRGB">
<feFlood flood-opacity="0" result="BackgroundImageFix"/>
<feBlend mode="normal" in="SourceGraphic" in2="BackgroundImageFix" result="shape"/>
<feGaussianBlur stdDeviation="0.5" result="effect1_foregroundBlur_14_1610"/>
</filter>
<filter id="filter1_f_14_1610" x="67" y="97" width="41.8234" height="37" filterUnits="userSpaceOnUse" color-interpolation-filters="sRGB">
<feFlood flood-opacity="0" result="BackgroundImageFix"/>
<feBlend mode="normal" in="SourceGraphic" in2="BackgroundImageFix" result="shape"/>
<feGaussianBlur stdDeviation="0.5" result="effect1_foregroundBlur_14_1610"/>
</filter>
</defs>
</svg>
